<svg xmlns="http://www.w3.org/2000/svg" xmlns:xlink="http://www.w3.org/1999/xlink" width="40" zoomAndPan="magnify" viewBox="0 0 30 30.000001" height="40" preserveAspectRatio="xMidYMid meet" version="1.0"><defs><clipPath id="6f934c0c2c"><path d="M 0.484375 0 L 29.515625 0 L 29.515625 29.03125 L 0.484375 29.03125 Z M 0.484375 0 " clip-rule="nonzero"/></clipPath></defs><g clip-path="url(#6f934c0c2c)"><path fill="#ffffff" d="M 15 0 C 6.984375 0 0.484375 6.5 0.484375 14.515625 C 0.484375 22.53125 6.984375 29.03125 15 29.03125 C 23.015625 29.03125 29.515625 22.53125 29.515625 14.515625 C 29.515625 6.5 23.015625 0 15 0 Z M 23.441406 14.925781 C 23.027344 15.339844 22.417969 15.4375 21.910156 15.214844 L 21.910156 20.722656 C 21.910156 21.867188 20.984375 22.792969 19.835938 22.792969 L 10.164062 22.792969 C 9.015625 22.792969 8.089844 21.867188 8.089844 20.722656 L 8.089844 15.214844 C 7.582031 15.4375 6.972656 15.339844 6.558594 14.925781 C 6.019531 14.386719 6.019531 13.511719 6.558594 12.972656 L 14.023438 5.507812 C 14.5625 4.96875 15.4375 4.96875 15.976562 5.507812 L 23.441406 12.972656 C 23.980469 13.511719 23.980469 14.386719 23.441406 14.925781 Z M 23.441406 14.925781 " fill-opacity="1" fill-rule="nonzero"/></g><path fill="#ffffff" d="M 16.726562 15.191406 L 13.273438 15.191406 C 12.890625 15.191406 12.582031 15.503906 12.582031 15.882812 L 12.582031 20.03125 C 12.582031 20.414062 12.890625 20.722656 13.273438 20.722656 L 16.726562 20.722656 C 17.109375 20.722656 17.417969 20.414062 17.417969 20.03125 L 17.417969 15.882812 C 17.417969 15.503906 17.109375 15.191406 16.726562 15.191406 Z M 16.726562 15.191406 " fill-opacity="1" fill-rule="nonzero"/></svg>